<?xml version="1.0" encoding="UTF-8" standalone="no"?>
<svg
   xmlns:dc="http://purl.org/dc/elements/1.1/"
   xmlns:cc="http://creativecommons.org/ns#"
   xmlns:rdf="http://www.w3.org/1999/02/22-rdf-syntax-ns#"
   xmlns:svg="http://www.w3.org/2000/svg"
   xmlns="http://www.w3.org/2000/svg"
   xmlns:xlink="http://www.w3.org/1999/xlink"
   xmlns:sodipodi="http://sodipodi.sourceforge.net/DTD/sodipodi-0.dtd"
   xmlns:inkscape="http://www.inkscape.org/namespaces/inkscape"
   version="1.1"
   viewBox="0 0 1602 1109.8001"
   id="svg117"
   sodipodi:docname="background.svg"
   width="1602"
   height="1109.8"
   inkscape:version="1.0.2 (e86c870879, 2021-01-15)"
   inkscape:export-filename="/home/frd/Code/src/github.com/decind/website/static/img/background.png"
   inkscape:export-xdpi="74.824287"
   inkscape:export-ydpi="74.824287">
  <metadata
     id="metadata121">
    <rdf:RDF>
      <cc:Work
         rdf:about="">
        <dc:format>image/svg+xml</dc:format>
        <dc:type
           rdf:resource="http://purl.org/dc/dcmitype/StillImage" />
        <dc:title></dc:title>
      </cc:Work>
    </rdf:RDF>
  </metadata>
  <sodipodi:namedview
     pagecolor="#ffffff"
     bordercolor="#666666"
     borderopacity="1"
     objecttolerance="10"
     gridtolerance="10"
     guidetolerance="10"
     inkscape:pageopacity="0"
     inkscape:pageshadow="2"
     inkscape:window-width="1366"
     inkscape:window-height="713"
     id="namedview119"
     showgrid="false"
     inkscape:zoom="0.12265524"
     inkscape:cx="2289.2966"
     inkscape:cy="1118.6531"
     inkscape:window-x="0"
     inkscape:window-y="27"
     inkscape:window-maximized="1"
     inkscape:current-layer="svg117"
     fit-margin-top="0"
     fit-margin-left="0"
     fit-margin-right="0"
     fit-margin-bottom="0"
     inkscape:document-rotation="0" />
  <defs
     id="defs83">
    <filter
       id="r"
       color-interpolation-filters="sRGB">
      <feGaussianBlur
         stdDeviation="11.70421"
         id="feGaussianBlur2" />
    </filter>
    <filter
       id="w"
       color-interpolation-filters="sRGB">
      <feGaussianBlur
         stdDeviation="10.20534"
         id="feGaussianBlur5" />
    </filter>
    <filter
       id="u"
       x="-0.059999999"
       y="-0.13"
       width="1.13"
       height="1.25"
       color-interpolation-filters="sRGB">
      <feGaussianBlur
         stdDeviation="14.56947"
         id="feGaussianBlur8" />
    </filter>
    <filter
       id="t"
       x="-0.039999999"
       y="-0.13"
       width="1.0700001"
       height="1.27"
       color-interpolation-filters="sRGB">
      <feGaussianBlur
         stdDeviation="13.99753"
         id="feGaussianBlur11" />
    </filter>
    <filter
       id="s"
       x="-0.039999999"
       y="-0.11"
       width="1.09"
       height="1.23"
       color-interpolation-filters="sRGB">
      <feGaussianBlur
         stdDeviation="17.76938"
         id="feGaussianBlur14" />
    </filter>
    <filter
       id="x"
       x="-0.039999999"
       y="-0.16"
       width="1.08"
       height="1.33"
       color-interpolation-filters="sRGB">
      <feGaussianBlur
         stdDeviation="10.40622"
         id="feGaussianBlur17" />
    </filter>
    <filter
       id="v"
       x="-0.029999999"
       width="1.05"
       color-interpolation-filters="sRGB">
      <feGaussianBlur
         stdDeviation="10.04744"
         id="feGaussianBlur20" />
    </filter>
    <linearGradient
       id="a">
      <stop
         stop-color="#fff"
         offset="0"
         id="stop23" />
      <stop
         stop-color="#fff"
         stop-opacity="0"
         offset="1"
         id="stop25" />
    </linearGradient>
    <linearGradient
       id="b">
      <stop
         stop-color="#618ce6"
         offset="0"
         id="stop28" />
      <stop
         stop-color="#4270cc"
         offset=".12308"
         id="stop30" />
      <stop
         stop-color="#335eb5"
         offset=".23778"
         id="stop32" />
      <stop
         stop-color="#153b88"
         offset=".58813"
         id="stop34" />
      <stop
         stop-color="#04215c"
         offset="1"
         id="stop36" />
    </linearGradient>
    <linearGradient
       id="q"
       x2="0"
       y1="900.42999"
       y2="880.41998"
       gradientUnits="userSpaceOnUse"
       xlink:href="#a" />
    <mask
       id="p">
      <path
         d="m 1779.4,880.47 h 1603.4 a 1.2778,1.278 0 0 1 1.2778,1.278 v 320.97 a 1.2778,1.278 0 0 1 -1.2778,1.278 H 1779.4 a 1.2778,1.278 0 0 1 -1.2778,-1.278 v -320.95 a 1.2778,1.278 0 0 1 1.2778,-1.278"
         fill="url(#q)"
         id="path40" />
    </mask>
    <clipPath
       id="y">
      <rect
         x="3.8859"
         y="244.09"
         width="1604.2"
         height="1109.8"
         fill="#cccccc"
         id="rect43" />
    </clipPath>
    <radialGradient
       id="o"
       cx="1980.4"
       cy="722.58002"
       r="803"
       gradientTransform="matrix(2.4402,4.7661e-7,0,0.93665,-4654.9,168.2)"
       gradientUnits="userSpaceOnUse">
      <stop
         stop-color="#417fd9"
         offset="0"
         id="stop46" />
      <stop
         stop-color="#215aa5"
         offset=".3186"
         id="stop48" />
      <stop
         stop-color="#002a7d"
         offset="1"
         id="stop50" />
    </radialGradient>
    <radialGradient
       id="n"
       cx="1965"
       cy="1154.4"
       r="803"
       gradientTransform="matrix(2.2539,4.2927e-7,0,0.34816,-4303.8,-1263.9)"
       gradientUnits="userSpaceOnUse">
      <stop
         stop-color="#bab5cc"
         offset="0"
         id="stop53" />
      <stop
         stop-color="#9fa2b3"
         offset=".15245"
         id="stop55" />
      <stop
         stop-color="#5b7bad"
         stop-opacity="0"
         offset="1"
         id="stop57" />
    </radialGradient>
    <radialGradient
       id="m"
       cx="1954.2"
       cy="1056.5"
       r="803"
       gradientTransform="matrix(3.5497,0,1.0443e-7,0.47748,-5055.5,376.02)"
       gradientUnits="userSpaceOnUse">
      <stop
         stop-color="#90b2f2"
         offset="0"
         id="stop60" />
      <stop
         stop-color="#5a83d4"
         offset=".16017"
         id="stop62" />
      <stop
         stop-color="#1b589d"
         offset=".46803"
         id="stop64" />
      <stop
         stop-color="#133d6d"
         offset="1"
         id="stop66" />
    </radialGradient>
    <radialGradient
       id="l"
       cx="354.73001"
       cy="849.72998"
       r="403.85999"
       gradientTransform="matrix(1.8861,-0.11124,0.02424,0.41098,-237.71,592.95)"
       gradientUnits="userSpaceOnUse"
       xlink:href="#a" />
    <radialGradient
       id="k"
       cx="503.01001"
       cy="747.15997"
       r="377.23999"
       gradientTransform="matrix(1.386,-0.15994,0.049537,0.42927,-277.03,696.71)"
       gradientUnits="userSpaceOnUse"
       xlink:href="#a" />
    <radialGradient
       id="j"
       cx="1406.1"
       cy="734.75"
       r="230"
       fx="1442.3"
       fy="842.62"
       gradientTransform="matrix(0.16997,0.63432,-1.4075,0.37714,3996.2,-423.01)"
       gradientUnits="userSpaceOnUse"
       xlink:href="#a" />
    <radialGradient
       id="i"
       cx="2053.7"
       cy="358.26001"
       r="807"
       gradientTransform="matrix(2.4876,0,0,0.28384,-4848.9,781.57)"
       gradientUnits="userSpaceOnUse"
       xlink:href="#b" />
    <radialGradient
       id="h"
       cx="2520"
       cy="-116.02"
       r="807"
       gradientTransform="matrix(-2.4051,0,0,0.36119,6250.8,869.34)"
       gradientUnits="userSpaceOnUse"
       xlink:href="#b" />
    <radialGradient
       id="g"
       cx="2441.2"
       cy="515.88"
       r="221.84"
       gradientTransform="matrix(1.8021,-3.7931e-6,-1.2729e-6,0.96714,-1591.9,160.3)"
       gradientUnits="userSpaceOnUse"
       xlink:href="#a" />
    <radialGradient
       id="f"
       cx="79.599998"
       cy="2188"
       r="807"
       gradientTransform="matrix(0,-0.36686,1.5865,0,-3134.8,1386.1)"
       gradientUnits="userSpaceOnUse">
      <stop
         stop-color="#174c99"
         offset="0"
         id="stop75" />
      <stop
         stop-color="#174c99"
         stop-opacity="0"
         offset="1"
         id="stop77" />
    </radialGradient>
    <radialGradient
       id="e"
       cx="198.53"
       cy="625.16998"
       r="410.20999"
       fx="136.82001"
       fy="613.53998"
       gradientTransform="matrix(3.2425,0.37929,-0.041633,0.31862,-111.27,698.78)"
       gradientUnits="userSpaceOnUse"
       xlink:href="#a" />
    <radialGradient
       id="d"
       cx="225.28999"
       cy="703.75"
       r="374.01001"
       gradientTransform="matrix(2.358,0.080847,-0.022501,0.32137,-291.32,697.29)"
       gradientUnits="userSpaceOnUse"
       xlink:href="#a" />
    <radialGradient
       id="c"
       cx="179.75"
       cy="848.37"
       r="284.62"
       gradientTransform="matrix(2.1012,2.8705e-5,0,0.41508,-197.84,610.32)"
       gradientUnits="userSpaceOnUse"
       xlink:href="#a" />
    <clipPath
       id="y-2">
      <rect
         x="3.8859"
         y="244.09"
         width="1604.2"
         height="1109.8"
         fill="#cccccc"
         id="rect43-2" />
    </clipPath>
    <radialGradient
       id="o-8"
       cx="1980.4"
       cy="722.58002"
       r="803"
       gradientTransform="matrix(2.4402,4.7661e-7,0,0.93665,-4654.9,168.2)"
       gradientUnits="userSpaceOnUse">
      <stop
         stop-color="#417fd9"
         offset="0"
         id="stop46-9" />
      <stop
         stop-color="#215aa5"
         offset=".3186"
         id="stop48-7" />
      <stop
         stop-color="#002a7d"
         offset="1"
         id="stop50-3" />
    </radialGradient>
    <radialGradient
       id="n-6"
       cx="1965"
       cy="1154.4"
       r="803"
       gradientTransform="matrix(2.2539,4.2927e-7,0,0.34816,-4303.8,-1263.9)"
       gradientUnits="userSpaceOnUse">
      <stop
         stop-color="#bab5cc"
         offset="0"
         id="stop53-1" />
      <stop
         stop-color="#9fa2b3"
         offset=".15245"
         id="stop55-2" />
      <stop
         stop-color="#5b7bad"
         stop-opacity="0"
         offset="1"
         id="stop57-9" />
    </radialGradient>
    <radialGradient
       id="m-3"
       cx="1954.2"
       cy="1056.5"
       r="803"
       gradientTransform="matrix(3.5497,0,1.0443e-7,0.47748,-5055.5,376.02)"
       gradientUnits="userSpaceOnUse">
      <stop
         stop-color="#90b2f2"
         offset="0"
         id="stop60-1" />
      <stop
         stop-color="#5a83d4"
         offset=".16017"
         id="stop62-9" />
      <stop
         stop-color="#1b589d"
         offset=".46803"
         id="stop64-4" />
      <stop
         stop-color="#133d6d"
         offset="1"
         id="stop66-7" />
    </radialGradient>
    <mask
       id="p-8">
      <path
         d="m 1779.4,880.47 h 1603.4 a 1.2778,1.278 0 0 1 1.2778,1.278 v 320.97 a 1.2778,1.278 0 0 1 -1.2778,1.278 H 1779.4 a 1.2778,1.278 0 0 1 -1.2778,-1.278 v -320.95 a 1.2778,1.278 0 0 1 1.2778,-1.278"
         fill="url(#q)"
         id="path40-4"
         style="fill:url(#q-5)" />
    </mask>
    <linearGradient
       id="q-5"
       x2="0"
       y1="900.42999"
       y2="880.41998"
       gradientUnits="userSpaceOnUse"
       xlink:href="#a" />
    <radialGradient
       id="i-6"
       cx="2053.7"
       cy="358.26001"
       r="807"
       gradientTransform="matrix(2.4876,0,0,0.28384,-4848.9,781.57)"
       gradientUnits="userSpaceOnUse"
       xlink:href="#b" />
    <radialGradient
       id="h-0"
       cx="2520"
       cy="-116.02"
       r="807"
       gradientTransform="matrix(-2.4051,0,0,0.36119,6250.8,869.34)"
       gradientUnits="userSpaceOnUse"
       xlink:href="#b" />
  </defs>
  <g
     transform="translate(-3.8859,-244.09)"
     clip-path="url(#y)"
     id="g115">
    <g
       id="g128">
      <path
         d="m 3.1778,242 h 1603.4 a 1.2778,1.278 0 0 1 1.2778,1.278 v 1095.4 a 1.2778,1.278 0 0 1 -1.2778,1.278 H 3.1778 a 1.2778,1.278 0 0 1 -1.2778,-1.3 v -1095.4 a 1.2778,1.278 0 0 1 1.2778,-1.278"
         fill="url(#o)"
         id="path85"
         style="fill:url(#o)" />
      <path
         transform="scale(1,-1)"
         d="m 1.9,-890 h 1606 v 439.53 H 1.9 Z"
         fill="url(#n)"
         id="path87"
         style="fill:url(#n)" />
      <path
         transform="matrix(1,0,0,1.068,-1776.3,-83.872)"
         d="m 1779.4,880.47 h 1603.4 a 1.2778,1.1966 0 0 1 1.2778,1.1966 v 321.13 a 1.2778,1.1966 0 0 1 -1.2,1.1967 h -1603.5 a 1.2778,1.1966 0 0 1 -1.2778,-1.1967 v -321.13 a 1.2778,1.1966 0 0 1 1.2778,-1.1966"
         fill="url(#m)"
         mask="url(#p)"
         id="path89"
         style="fill:url(#m)" />
      <path
         d="m -2.1,859.25 c 16.75,-9.75 56,38 67,40 11,2 52,7 58,9 6,2 34,-13 40,-13 6,0 18,-4 22,-6 4,-2 7,-10.5 17,-11 10,-0.5 12,8 23,9 11,1 27.09,2.45 40,7 8.15,2.88 6.96,5.78 11,8.41 6.43,4.18 4,-11.41 13,-7.41 9,4 2.75,8 16,3 13.25,-5 28,-22 37,-23 9,-1 30,11 38,12 8,1 40,-14 49,-14 9,0 25.75,4.75 46,4 20.25,-0.75 25,-10 35,-7 10,3 15.25,6.5 25,9 9.75,2.5 18.5,-2 19.5,4 1,6 14.25,8.75 26.5,10 12.25,1.25 10,-10 17,-8 7,2 37,20 46,19 9,-1 5,-9 14,-7 9,2 11,9 20,10 9,1 24,-5 35,-5 11,0 27,-8 32,-12 5,-4 46,-15 54,-16 8,-1 45,-5 60,-10 15,-5 74.79,-18.24 87.52,-15.41 12.41,2.76 38.48,40.41 58.48,41.41 20,1 69,4 77,-2 8,-6 69,-21 77,-14 8,7 52,-8 57,-9 1.89,-0.37 37.34,1.93 42.16,14.05 6.28,15.81 46.73,28.81 78.22,31.45 25.44,2.13 57.9,19.39 117.6,1.36 8.87,-2.67 51.7,-17.7 80,-12.6 17.15,3.09 65.29,-1.51 78.02,5.02 v 301.72 H -2.1 Z"
         fill="url(#i)"
         id="path99"
         style="fill:url(#i)" />
      <path
         d="m 1611.9,934.72 c -16.75,-7.46 -56,29.08 -67,30.61 -11,1.53 -52,5.35 -58,6.88 -6,1.54 -34,-9.94 -40,-9.94 -6,0 -18,-3.06 -22,-4.59 -4,-1.54 -7,-8.04 -17,-8.42 -10,-0.39 -12,6.12 -23,6.88 -11,0.77 -27.09,1.87 -40,5.36 -8.15,2.2 -6.95,4.42 -11,6.43 -6.43,3.2 -4,-8.72 -13,-5.66 -9,3.06 -2.75,6.12 -16,2.29 -13.25,-3.82 -28,-16.83 -37,-17.6 -9,-0.76 -30,8.42 -38,9.18 -8,0.77 -40,-10.71 -49,-10.71 -9,0 -25.75,3.64 -46,3.06 -20.25,-0.57 -25,-7.65 -35,-5.35 -10,2.29 -15.25,4.97 -25,6.88 -9.75,1.92 -18.5,-1.53 -19.5,3.06 -1,4.6 -14.25,6.7 -26.5,7.66 -12.25,0.95 -10,-7.66 -17,-6.13 -7,1.53 -37,15.31 -46,14.54 -9,-0.76 -5,-6.88 -14,-5.35 -9,1.53 -11,6.88 -20,7.65 -9,0.76 -24,-3.83 -35,-3.83 -11,0 -27,-6.12 -32,-9.18 -5,-3.06 -46,-11.48 -54,-12.24 -8,-0.77 -45,-3.83 -60,-7.66 -15,-3.82 -74.79,-13.95 -87.51,-11.79 -12.42,2.11 -38.49,30.93 -58.49,31.69 -20,0.77 -69,3.06 -77,-1.53 -8,-4.59 -69,-16.07 -77,-10.71 -8,5.35 -52,-6.13 -57,-6.89 -1.89,-0.29 -37.34,1.47 -42.16,10.75 -6.28,12.1 -46.73,22.04 -78.22,24.06 -25.44,1.63 -57.9,14.84 -117.6,1.05 -8.87,-2.05 -51.7,-13.55 -80,-9.65 -17.15,2.37 -65.29,-1.15 -78.02,3.85 v 387.49 h 1614 V 934.68 Z"
         fill="url(#h)"
         id="path101"
         style="fill:url(#h)" />
    </g>
  </g>
</svg>
