<?xml version="1.0" encoding="UTF-8" standalone="no"?>
<svg
   xmlns:dc="http://purl.org/dc/elements/1.1/"
   xmlns:cc="http://creativecommons.org/ns#"
   xmlns:rdf="http://www.w3.org/1999/02/22-rdf-syntax-ns#"
   xmlns:svg="http://www.w3.org/2000/svg"
   xmlns="http://www.w3.org/2000/svg"
   xmlns:sodipodi="http://sodipodi.sourceforge.net/DTD/sodipodi-0.dtd"
   xmlns:inkscape="http://www.inkscape.org/namespaces/inkscape"
   width="281.00018mm"
   height="281.00018mm"
   viewBox="0 0 281.00018 281.00019"
   version="1.1"
   id="svg8"
   inkscape:version="1.0.2 (e86c870879, 2021-01-15)"
   sodipodi:docname="logo.svg"
   inkscape:export-filename="/home/frd/favicon.png"
   inkscape:export-xdpi="5.7850494"
   inkscape:export-ydpi="5.7850494">
  <defs
     id="defs2" />
  <sodipodi:namedview
     id="base"
     pagecolor="#0066ff"
     bordercolor="#666666"
     borderopacity="1.0"
     inkscape:pageopacity="0"
     inkscape:pageshadow="2"
     inkscape:zoom="0.46263152"
     inkscape:cx="209.21965"
     inkscape:cy="500.26823"
     inkscape:document-units="mm"
     inkscape:current-layer="g1414"
     inkscape:document-rotation="0"
     showgrid="false"
     inkscape:window-width="1366"
     inkscape:window-height="713"
     inkscape:window-x="0"
     inkscape:window-y="27"
     inkscape:window-maximized="1"
     lock-margins="true"
     fit-margin-top="40"
     fit-margin-left="40"
     fit-margin-right="40"
     fit-margin-bottom="40" />
  <metadata
     id="metadata5">
    <rdf:RDF>
      <cc:Work
         rdf:about="">
        <dc:format>image/svg+xml</dc:format>
        <dc:type
           rdf:resource="http://purl.org/dc/dcmitype/StillImage" />
        <dc:title></dc:title>
      </cc:Work>
    </rdf:RDF>
  </metadata>
  <g
     inkscape:label="Calque 1"
     inkscape:groupmode="layer"
     id="layer1"
     transform="translate(-115.49978,-115.49978)" />
  <g
     inkscape:groupmode="layer"
     inkscape:label="Chart-Layer: apples:3,bananas:5,oranges:10,pears:4"
     id="g905"
     transform="translate(-115.49978,-115.49978)" />
  <g
     inkscape:groupmode="layer"
     inkscape:label="Chart-Layer: apples:3,bananas:3,oranges:3,pears:3"
     id="g1082"
     transform="translate(-115.49978,-115.49978)" />
  <g
     inkscape:groupmode="layer"
     inkscape:label="Chart-Layer: a:3,b:3,c:3,d:3,d:3"
     id="g1137"
     transform="translate(-115.49978,-115.49978)" />
  <g
     inkscape:groupmode="layer"
     inkscape:label="Chart-Layer: a:1,b:2,c:4,d:8,d:16"
     id="g1212"
     transform="translate(-115.49978,-115.49978)" />
  <g
     inkscape:groupmode="layer"
     inkscape:label="Chart-Layer: a:1,b:2,c:3,d:5,d:8"
     id="g1272"
     transform="translate(-115.49978,-115.49978)" />
  <g
     inkscape:groupmode="layer"
     inkscape:label="Chart-Layer: a:1,b:2,c:3,d:5,d:8,d:13"
     id="g1355"
     transform="translate(-115.49978,-115.49978)" />
  <g
     inkscape:groupmode="layer"
     inkscape:label="Chart-Layer: c:3,d:5,d:8,d:13"
     id="g1414"
     transform="translate(-115.49978,-115.49978)">
    <path
       id="circle1388"
       style="opacity:0.5;fill:#f9f9f9;stroke:#ececec;stroke-width:3.77953"
       d="M 967.30078,589.60547 A 377.95276,377.95276 0 0 0 589.60547,967.55859 377.95276,377.95276 0 0 0 967.55859,1345.5117 377.95276,377.95276 0 0 0 1345.5117,967.55859 377.95276,377.95276 0 0 0 967.55859,589.60547 a 377.95276,377.95276 0 0 0 -0.25781,0 z m 3.20899,162.36719 a 213.32155,213.55914 0 0 1 212.87503,200.52148 l 0.3964,13.03711 A 213.32155,213.55914 0 0 1 973.71875,1179.0645 213.32155,213.55914 0 0 1 757.23828,972.05273 213.32155,213.55914 0 0 1 960.68945,752.19531 a 213.32155,213.55914 0 0 1 9.82032,-0.22265 z"
       transform="scale(0.26458333)" />
    <path
       id="path1394"
       style="fill:#ffffff;fill-opacity:1;stroke:none;stroke-width:4.13223"
       d="m 1183.7715,967.55859 a 213.32155,213.55914 0 0 1 -45.6563,130.01951 l 157.9453,120.4063 a 412.64193,413.80587 0 0 0 84.1407,-250.42581 z"
       transform="scale(0.26458333)" />
    <path
       id="path1400"
       style="opacity:0.7;fill:#ffffff;fill-opacity:1;stroke:none;stroke-width:3.77953"
       d="m 1138.2949,1097.3496 a 213.32155,213.55914 0 0 1 -164.57615,81.7149 213.32155,213.55914 0 0 1 -40.30664,-3.2207 l -26.99805,164.6894 a 377.95276,377.95276 0 0 0 362.03124,-144.2461 z"
       transform="scale(0.26458333)" />
    <path
       id="path1406"
       style="opacity:0.5;fill:#ffffff;fill-opacity:1;stroke:none;stroke-width:3.77953"
       d="m 609.39062,846.87891 a 377.95276,377.95276 0 0 0 34.31641,315.53519 377.95276,377.95276 0 0 0 262.70703,178.1191 l 26.99805,-164.6894 a 213.32155,213.55914 0 0 1 -176.17383,-203.79107 213.32155,213.55914 0 0 1 10.1543,-71.9375 z"
       transform="scale(0.26458333)" />
  </g>
</svg>
